<svg xmlns="http://www.w3.org/2000/svg" width="200" height="200" viewBox="0 0 200 200">
  <path id="s5-blob-0" d="M 137.038224 102.18471 C 135.864127 110.484963 126.050195 122.756764 122.975844 127.867568 C 119.901494 132.978371 124.535681 130.161105 118.592122 132.849532 C 112.648564 135.537959 98.711225 143.822034 87.314493 143.99813 C 75.917762 144.174227 56.389693 139.966416 50.211734 133.906112 C 44.033775 127.845807 47.816983 116.787502 50.246742 107.636303 C 52.676501 98.485104 57.091384 88.076204 64.790289 78.998918 C 72.489195 69.921631 90.509912 57.092988 96.440174 53.172585 C 102.370436 49.252182 94.775153 51.327587 100.371861 55.476497 C 105.96857 59.625407 123.909365 70.281344 130.020426 78.066046 C 136.131486 85.850748 138.212321 93.884456 137.038224 102.18471 Z" fill="orchid"/>
</svg>