<svg xmlns="http://www.w3.org/2000/svg" width="200" height="200" viewBox="0 0 200 200">
  <path id="s3-blob-0" d="M 140.508116 104.003788 C 136.103994 113.496332 128.276318 113.585972 124.532362 120.026183 C 120.788406 126.466394 124.839565 139.432837 118.04438 142.645056 C 111.249195 145.857276 92.236339 144.513449 83.761251 139.299501 C 75.286163 134.085553 71.394227 117.634196 67.193852 111.361369 C 62.993477 105.088541 57.304383 107.734643 58.559002 101.662535 C 59.813622 95.590428 69.311266 81.955134 74.721568 74.928725 C 80.131869 67.902317 85.108354 61.886012 91.020811 59.504083 C 96.933269 57.122155 100.20693 60.042679 110.196311 60.637152 C 120.185691 61.231625 145.905126 55.843148 150.957094 63.070921 C 156.009062 70.298694 144.912238 94.511245 140.508116 104.003788 Z" fill="orchid"/>
</svg>