<svg xmlns="http://www.w3.org/2000/svg" width="200" height="200" viewBox="0 0 200 200">
  <path id="s1-blob-0" d="M 157.518326 106.622313 C 157.00849 114.674359 136.156504 113.495385 131.238966 122.55878 C 126.321429 131.622174 137.498969 155.770627 128.013102 161.002681 C 118.527234 166.234735 87.036904 157.627689 74.323761 153.951104 C 61.610618 150.27452 56.454571 148.859585 51.734244 138.943176 C 47.013917 129.026768 43.835029 104.086836 46.001798 94.452653 C 48.168567 84.81847 60.257248 90.297098 64.73486 81.138078 C 69.212472 71.979058 65.491712 43.54819 72.867471 39.498532 C 80.243229 35.448874 98.750993 51.048803 108.989413 56.840132 C 119.227832 62.631461 126.209833 65.949476 134.297986 74.246506 C 142.386138 82.543537 158.028163 98.570268 157.518326 106.622313 Z" fill="orchid"/>
</svg>