<svg xmlns="http://www.w3.org/2000/svg" width="200" height="200" viewBox="0 0 200 200">
  <path id="s2-blob-0" d="M 208.035765 100.115566 C 205.710408 111.347255 153.654931 125.740088 140.8487 139.999701 C 128.042468 154.259315 138.565422 182.78682 131.198375 185.673247 C 123.831328 188.559673 110.301606 163.823089 96.646419 157.318259 C 82.991232 150.813429 62.734883 153.290268 49.267251 146.644267 C 35.799619 139.998266 19.559872 135.189586 15.840627 117.442253 C 12.121382 99.694921 14.971237 55.286031 26.951778 40.160272 C 38.932319 25.034513 70.19582 30.583657 87.723873 26.687701 C 105.251926 22.791744 120.940602 9.130887 132.120097 16.784531 C 143.299592 24.438176 142.148231 58.721061 154.800842 72.609567 C 167.453453 86.498073 210.361122 88.883877 208.035765 100.115566 Z" fill="orchid"/>
</svg>