<svg xmlns="http://www.w3.org/2000/svg" width="200" height="200" viewBox="0 0 200 200">
  <path id="s6-blob-0" d="M 182.018766 109.099058 C 181.434808 121.82958 176.211112 121.307304 164.061996 135.529832 C 151.91288 149.75236 126.499749 186.331514 109.124072 194.434226 C 91.748396 202.536938 70.716191 189.338569 59.807935 184.146105 C 48.899679 178.95364 49.069663 174.55716 43.674537 163.279439 C 38.279411 152.001717 25.243622 133.17824 27.43718 116.479775 C 29.630738 99.78131 47.004473 76.331345 56.835887 63.08865 C 66.6673 49.845954 75.612671 45.234976 86.425661 37.023603 C 97.238651 28.812231 108.190479 10.13323 121.713826 13.820413 C 135.237173 17.507596 157.514918 43.266926 167.565741 59.146701 C 177.616565 75.026475 182.602724 96.368536 182.018766 109.099058 Z" fill="orchid"/>
</svg>