<svg xmlns="http://www.w3.org/2000/svg" width="200" height="200" viewBox="0 0 200 200">
  <path id="s4-blob-0" d="M 132.541415 106.089036 C 130.953833 115.615436 141.134186 114.302028 137.898665 120.877335 C 134.663144 127.452642 122.717075 141.67697 113.12829 145.54088 C 103.539505 149.40479 90.676795 145.670086 80.365956 144.060793 C 70.055116 142.451501 55.329868 143.737291 51.263254 135.885127 C 47.196641 128.032964 51.734303 108.19001 55.966276 96.947813 C 60.198249 85.705616 71.752238 75.63838 76.655091 68.431946 C 81.557945 61.225511 80.552153 55.160594 85.383399 53.709206 C 90.214644 52.257818 95.302437 58.055332 105.642564 59.72362 C 115.98269 61.391908 142.941014 55.991366 147.424156 63.718936 C 151.907298 71.446505 134.128997 96.562636 132.541415 106.089036 Z" fill="orchid"/>
</svg>