<svg xmlns="http://www.w3.org/2000/svg" width="400" height="400" viewBox="0 0 400 400">
  <path id="s20-blob-0" d="M 324.463098 187.005308 C 325.993585 220.662239 306.651663 274.07108 278.657731 304.302967 C 250.663799 334.534854 194.64897 374.770704 156.499505 368.396628 C 118.350039 362.022552 61.547795 300.28723 49.760938 266.058508 C 37.974082 231.829786 65.827377 196.848878 85.778365 163.024296 C 105.729353 129.199713 138.850791 73.221501 169.466865 63.111015 C 200.082939 53.000528 243.642101 81.712328 269.474807 102.361377 C 295.307512 123.010425 322.932611 153.348376 324.463098 187.005308 Z" fill="#1a1a2e"/>
  <path id="s20-blob-1" d="M 289.879 219.188418 C 291.52443 238.472383 272.760164 243.574448 257.794608 257.625024 C 242.829053 271.6756 223.1303 304.078723 200.085668 303.491872 C 177.041036 302.905021 140.54307 270.844091 119.526814 254.103919 C 98.510559 237.363746 75.308264 219.575574 73.988137 203.050838 C 72.668011 186.526101 90.399797 173.956905 111.606056 154.955498 C 132.812314 135.954091 178.50636 91.214772 201.225689 89.042395 C 223.945017 86.870018 233.146473 120.230232 247.922025 141.921235 C 262.697577 163.612239 288.233569 199.904453 289.879 219.188418 Z" fill="#16213e"/>
  <path id="s20-polygon-2" d="M 201.190526 124.612421 L 264.733904 160.930531 L 254.479338 237.117501 L 207.616195 271.920977 L 137.331635 222.825192 L 146.967794 156.456277 Z" fill="#0f3460"/>
  <circle id="s20-circle-3" cx="200" cy="200" r="14" fill="#e94560"/>
</svg>