<svg xmlns="http://www.w3.org/2000/svg" width="400" height="400" viewBox="0 0 400 400">
  <path id="s30-blob-0" d="M 297.635244 197.275107 C 307.1153 229.092077 337.226284 290.979163 313.834324 314.880666 C 290.442364 338.782169 194.715002 351.319426 157.283482 340.684124 C 119.851962 330.048821 104.486887 284.038653 89.245202 251.06885 C 74.003518 218.099047 50.590657 167.66538 65.833374 142.865304 C 81.076092 118.065229 148.848072 105.416143 180.701507 102.268399 C 212.554942 99.120656 237.465028 108.144392 256.953984 123.978844 C 276.44294 139.813295 288.155187 165.458136 297.635244 197.275107 Z" fill="#1a1a2e"/>
  <path id="s30-blob-1" d="M 278.9368 212.552303 C 284.855198 237.30185 287.60199 277.471901 275.763295 290.589891 C 263.924601 303.707882 231.338307 294.820793 207.904632 291.260243 C 184.470956 287.699694 159.030366 280.535838 135.161241 269.226595 C 111.292117 257.917351 66.218878 241.912051 64.689884 223.404783 C 63.160891 204.897516 107.413398 177.901566 125.987282 158.182991 C 144.561166 138.464415 157.088918 107.775059 176.133189 105.093329 C 195.17746 102.411599 223.118973 124.18278 240.252909 142.092608 C 257.386844 160.002437 273.018402 187.802756 278.9368 212.552303 Z" fill="#16213e"/>
  <path id="s30-polygon-2" d="M 194.756648 126.651871 L 265.856295 160.753026 L 253.43478 237.962913 L 191.917958 268.482636 L 144.322565 230.572779 L 144.471468 152.682431 Z" fill="#0f3460"/>
  <circle id="s30-circle-3" cx="200" cy="200" r="14" fill="#e94560"/>
</svg>