<svg xmlns="http://www.w3.org/2000/svg" width="400" height="400" viewBox="0 0 400 400">
  <path id="s10-blob-0" d="M 319.611687 201.117501 C 316.925853 235.615676 284.621024 277.396011 258.579806 303.193169 C 232.538588 328.990327 192.970403 361.34162 163.364379 355.900448 C 133.758356 350.459276 91.053035 306.230588 80.943664 270.546136 C 70.834293 234.861685 86.147104 179.338312 102.708155 141.793739 C 119.269206 104.249165 151.645528 52.876964 180.30997 45.278694 C 208.974412 37.680425 251.477856 70.230987 274.694809 96.204121 C 297.911761 122.177256 322.29752 166.619327 319.611687 201.117501 Z" fill="#1a1a2e"/>
  <path id="s10-blob-1" d="M 301.890545 198.330775 C 303.06127 223.202059 294.99919 271.145403 275.473149 288.89337 C 255.947108 306.641336 214.549867 302.650367 184.7343 304.818573 C 154.918733 306.986779 110.967387 314.730976 96.579749 301.902604 C 82.192111 289.074233 95.476109 254.200541 98.408471 227.848344 C 101.340833 201.496147 99.053664 163.657572 114.17392 143.789423 C 129.294176 123.921274 163.417528 109.326743 189.130008 108.639451 C 214.842488 107.952158 249.655379 124.717112 268.448802 139.665666 C 287.242225 154.614221 300.719821 173.459491 301.890545 198.330775 Z" fill="#16213e"/>
  <path id="s10-polygon-2" d="M 196.968452 125.635213 L 253.630586 166.156787 L 259.49156 222.19525 L 203.714509 271.495485 L 136.634165 232.895766 L 137.932899 166.876349 Z" fill="#0f3460"/>
  <circle id="s10-circle-3" cx="200" cy="200" r="14" fill="#e94560"/>
</svg>